<?xml version="1.0" encoding="utf-8"?>
<!-- Generator: Adobe Illustrator 24.1.1, SVG Export Plug-In . SVG Version: 6.00 Build 0)  -->
<svg version="1.1"
	 id="Layer_1" xmlns:cc="http://creativecommons.org/ns#" xmlns:dc="http://purl.org/dc/elements/1.1/" xmlns:rdf="http://www.w3.org/1999/02/22-rdf-syntax-ns#"
	 xmlns="http://www.w3.org/2000/svg" xmlns:xlink="http://www.w3.org/1999/xlink" x="0px" y="0px" viewBox="0 0 24 24"
	 style="enable-background:new 0 0 24 24;" xml:space="preserve">
<style type="text/css">
	.st0{fill:#FDE9A4;}
	.st1{fill:#2E4C59;}
	.st2{fill:#7F8C8D;}
	.st3{fill:#95A5A6;}
	.st4{fill:#ECF0F1;}
	.st5{fill:#BDC3C7;}
	.st6{fill:#E67E22;}
	.st7{fill:#34495E;}
	.st8{fill:#2C3E50;}
	.st9{fill:#D35400;}
</style>
<g>
	<path class="st0" d="M5,2C3.9,2,3,2.9,3,4v8v4v6c0,1.1,0.9,2,2,2h14c1.1,0,2-0.9,2-2v-6v-4V8V4c0-1.1-0.9-2-2-2h-4H5z"/>
	<g>
		<path class="st1" d="M6,0C5.4,0,5,0.4,5,1v3c0,0.5,0.4,1,1,1s1-0.5,1-1V1C7,0.4,6.6,0,6,0z M10,0C9.4,0,9,0.4,9,1v3
			c0,0.5,0.4,1,1,1c0.6,0,1-0.5,1-1V1C11,0.4,10.6,0,10,0z M14,0c-0.6,0-1,0.4-1,1v3c0,0.5,0.4,1,1,1s1-0.5,1-1V1
			C15,0.4,14.6,0,14,0z M18,0c-0.6,0-1,0.4-1,1v3c0,0.5,0.4,1,1,1s1-0.5,1-1V1C19,0.4,18.6,0,18,0z"/>
		<rect x="6" y="15" class="st1" width="12" height="1"/>
		<rect x="6" y="12" class="st1" width="12" height="1"/>
		<rect x="6" y="9" class="st1" width="12" height="1"/>
		<rect x="6" y="18" class="st1" width="4" height="1"/>
	</g>
	<path class="st2" d="M5,4c0,0.5,0.4,1,1,1s1-0.5,1-1H5z M9,4c0,0.5,0.4,1,1,1c0.6,0,1-0.5,1-1H9z M13,4c0,0.5,0.4,1,1,1s1-0.5,1-1
		H13z M17,4c0,0.5,0.4,1,1,1s1-0.5,1-1H17z"/>
	<path class="st3" d="M3,21v1c0,1.1,0.9,2,2,2h14c1.1,0,2-0.9,2-2v-1c0,1.1-0.9,2-2,2H5C3.9,23,3,22.1,3,21z"/>
	<g transform="matrix(.70711 .70711 -.70711 .70711 773.22 370.4)">
		<path class="st4" d="M-790.2,276.2v11.3v0.7v1l2,2l2-2v-1v-0.7v-11.3H-790.2z"/>
		<path class="st5" d="M-788.2,276.2v15l2-2v-1v-0.7v-11.3H-788.2z"/>
		
			<rect x="-793.7" y="280.7" transform="matrix(2.535182e-06 1 -1 2.535182e-06 -505.4686 1070.8993)" class="st6" width="11" height="4"/>
		<path class="st2" d="M-788.2,273.2c-1.1,0-2,0.9-2,2v1h4v-1C-786.2,274.1-787.1,273.2-788.2,273.2z"/>
		<g transform="translate(-7,1)">
			<path class="st7" d="M-782.6,288.8l1.4,1.4l1.4-1.4h-1.4H-782.6z"/>
			<path class="st8" d="M-781.2,288.8v1.4l1.4-1.4H-781.2z"/>
		</g>
		<path class="st3" d="M-788.2,273.2c-1.1,0-2,0.9-2,2v1h2V273.2z"/>
		
			<rect x="-792.7" y="281.7" transform="matrix(2.535182e-06 1 -1 2.535182e-06 -504.4686 1069.8993)" class="st9" width="11" height="2"/>
	</g>
</g>
</svg>
