<?xml version="1.0" encoding="utf-8"?>
<!-- Generator: Adobe Illustrator 24.1.1, SVG Export Plug-In . SVG Version: 6.00 Build 0)  -->
<svg version="1.1" id="Layer_1" xmlns="http://www.w3.org/2000/svg" xmlns:xlink="http://www.w3.org/1999/xlink" x="0px" y="0px"
	 viewBox="0 0 1000 1000" style="enable-background:new 0 0 1000 1000;" xml:space="preserve">
<style type="text/css">
	.st0{fill:#DEBFAE;}
</style>
<g>
	
		<image style="overflow:visible;opacity:0.38;" width="610" height="986" xlink:href="D400B32E.png"  transform="matrix(1 0 0 1 198 10)">
	</image>
	<g>
		<g>
			<g transform="matrix(1 0 0 -1 0 1920)">
				<path class="st0" d="M607.6,1713.8c-27,0-50,9.6-69.3,28.8c-19.2,19.2-28.8,42.3-28.8,69.3s9.6,50,28.8,69.3
					c19.2,19.2,42.3,28.8,69.3,28.8s50-9.6,69.3-28.8c19.2-19.2,28.8-42.3,28.8-69.3s-9.6-50-28.8-69.3
					C657.6,1723.4,634.5,1713.8,607.6,1713.8z M221.7,930c-6,0-11.1,2-15.3,6s-6.4,9-6.7,15.1c-0.6,4-0.9,10.5-0.9,19.4v278.3
					c0,81.5,3.6,147,10.8,196.6c3.4,26.1,11.5,54.3,24.3,84.5c12.8,30.3,27.9,58.5,45.4,84.8c17.5,26.2,37.1,49.7,58.7,70.3
					c21.7,20.7,42.4,34.6,62.2,41.7c20.9,7.5,39.7,11.2,56.4,11.2c29.3,0,51.3-12.2,66.3-36.6L635.5,1522l112.7-64.1
					c1.4-1.1,3.3-2.6,5.6-4.3c2.3-1.7,6.5-5.4,12.7-11s11.5-11.3,16.1-17s8.8-12.6,12.7-20.6s5.8-15.8,5.8-23.2V951.5
					c0-6-2.1-11.1-6.2-15.3s-9.2-6.2-15.3-6.2s-11.1,2.1-15.3,6.2c-4.2,4.2-6.2,9.3-6.2,15.3v430.2c0,7.5-1.5,14-4.5,19.6
					s-6.8,9.8-11.4,12.5c-4.6,2.7-9.3,4.7-14,6s-9.4,1.9-14,1.9c-11.2,0-21-3.3-29.5-9.9s-12.7-16.6-12.7-30.1
					c0-6-2.1-11.1-6.2-15.3s-9.2-6.2-15.3-6.2s-11.1,2.1-15.3,6.2c-4.2,4.2-6.2,9.2-6.2,15.3c0,22.7,7.3,41.4,21.9,56.4
					c-43.9,8.9-66.4,14.1-67.5,15.5l-89.9,75.7l-58.9-145.4l57.6-166.5l-3.9-222.8l72.3-13.8c5.4-1.1,9.9-4.2,13.3-9.2
					c3.4-5,5.2-10.5,5.2-16.6s-2.5-11.3-7.5-15.9c-5-4.6-10.5-6.9-16.6-6.9l-118.7-0.9c-6,0-11.2,2.1-15.5,6.2
					c-4.3,4.2-6.5,9.1-6.5,14.8l2.2,46.9l-32.7,200.5l-46.9,95.9l-33.1-111.4l-27.1-191.9l68.8-11.6c5.4-1.1,9.9-4.2,13.3-9.2
					s5.2-10.5,5.2-16.6s-2.5-11.3-7.5-15.9c-5-4.6-10.5-6.9-16.6-6.9L221.7,930z"/>
			</g>
		</g>
	</g>
</g>
</svg>
