<?xml version="1.0" encoding="utf-8"?>
<!-- Generator: Adobe Illustrator 24.1.1, SVG Export Plug-In . SVG Version: 6.00 Build 0)  -->
<svg version="1.1" id="Capa_1" xmlns="http://www.w3.org/2000/svg" xmlns:xlink="http://www.w3.org/1999/xlink" x="0px" y="0px"
	 viewBox="0 0 60 60" style="enable-background:new 0 0 60 60;" xml:space="preserve">
<style type="text/css">
	.st0{fill:#A6CDC2;}
</style>
<g>
	
		<image style="overflow:visible;opacity:0.38;" width="67" height="67" xlink:href="6B9255D2.png"  transform="matrix(1 0 0 1 -1 -1.994)">
	</image>
	<g>
		<path class="st0" d="M59.4,40.9c-2-3.8-9-7.9-9.3-8.1c-0.9-0.5-1.8-0.8-2.7-0.8c-1.3,0-2.4,0.6-3,1.7c-1,1.2-2.3,2.6-2.6,2.9
			c-2.4,1.6-4.2,1.4-6.3-0.6L24,24.5c-2-2-2.2-3.9-0.6-6.3c0.2-0.3,1.6-1.6,2.9-2.6c0.8-0.5,1.3-1.1,1.5-2c0.3-1.1,0.1-2.4-0.7-3.7
			c-0.2-0.3-4.3-7.3-8.1-9.3C18.4,0.2,17.6,0,16.8,0c-1.3,0-2.6,0.5-3.5,1.4L10.8,4c-4,4-5.5,8.6-4.3,13.5c1,4.1,3.7,8.5,8.3,13.1
			l14.7,14.7c4.9,4.9,9.6,7.7,14,8.5C42.4,56.2,39.9,58,37,58c-3.1,0-5.8-2-6.7-5l-0.9-3c-0.2-0.6-0.7-1-1.3-1s-1.2,0.4-1.3,1
			L25,55.5L23.3,50c-0.2-0.6-0.7-1-1.3-1s-1.2,0.4-1.3,1L19,55.5L17.3,50c-0.2-0.6-0.7-1-1.3-1c-0.6,0-1.2,0.4-1.3,1L13,55.5
			L11.3,50c-0.2-0.6-0.7-1-1.3-1s-1.2,0.4-1.3,1L7,55.5L5.3,50c-0.2-0.6-0.7-1-1.3-1s-1.2,0.4-1.3,1L0,58.7
			c-0.2,0.5,0.1,1.1,0.7,1.2c0.1,0,0.2,0,0.3,0c0.4,0,0.8-0.3,1-0.7l2-6.8L5.7,58c0.2,0.6,0.7,1,1.3,1s1.2-0.4,1.3-1l1.7-5.5
			l1.7,5.5c0.2,0.6,0.7,1,1.3,1s1.2-0.4,1.3-1l1.7-5.5l1.7,5.5c0.2,0.6,0.7,1,1.3,1s1.2-0.4,1.3-1l1.7-5.5l1.7,5.5
			c0.2,0.6,0.7,1,1.3,1s1.2-0.4,1.3-1l1.7-5.5l0.3,1.1C29.5,57.4,33,60,37,60c3.9,0,7.3-2.5,8.5-6.1c0.1,0,0.1,0,0.2,0c0,0,0,0,0,0
			c3.7,0,7.2-1.6,10.3-4.7l2.5-2.5C60.1,45.2,60.4,42.8,59.4,40.9z"/>
	</g>
</g>
</svg>
