<?xml version="1.0" encoding="utf-8"?>
<!-- Generator: Adobe Illustrator 23.1.0, SVG Export Plug-In . SVG Version: 6.00 Build 0)  -->
<svg version="1.1" xmlns="http://www.w3.org/2000/svg" xmlns:xlink="http://www.w3.org/1999/xlink" x="0px" y="0px" width="32px"
	 height="32px" viewBox="0 0 32 32" style="enable-background:new 0 0 32 32;" xml:space="preserve">
<g id="Layer_1">
	<rect y="0" style="fill:#3F51B5;" width="32" height="32"/>
	<rect x="1.07" y="1.07" style="fill:#FFFFFF;" width="29.87" height="29.87"/>
	<polygon style="fill:#3F51B5;" points="31,15.5 16.5,15.5 16.5,0.5 15.5,0.5 15.5,15.5 1,15.5 1,16.5 9,16.5 9,31 10,31 10,16.5 
		22,16.5 22,31 23,31 23,16.5 31,16.5 	"/>
</g>
<g id="Layer_2">
	<g>
		<path style="fill:#696969;" d="M8.89,6.46H8.87l-0.9,0.43L7.83,6.42l1.14-0.54h0.6v4.6H8.89V6.46z"/>
	</g>
	<g>
		<path style="fill:#696969;" d="M22.36,10.52v-0.38l0.55-0.47c1.33-1.12,1.93-1.71,1.94-2.41c0-0.47-0.26-0.9-1.03-0.9
			c-0.47,0-0.86,0.21-1.1,0.39l-0.22-0.44c0.36-0.27,0.87-0.47,1.47-0.47c1.12,0,1.59,0.68,1.59,1.34c0,0.85-0.7,1.54-1.79,2.47
			l-0.42,0.34V10h2.33v0.52H22.36z"/>
	</g>
	<g>
		<path style="fill:#696969;" d="M3.53,25.29c0.2,0.11,0.66,0.29,1.15,0.29c0.9,0,1.18-0.51,1.18-0.89
			c-0.01-0.64-0.66-0.92-1.34-0.92H4.12V23.3h0.39c0.51,0,1.16-0.23,1.16-0.78c0-0.37-0.26-0.69-0.91-0.69
			c-0.42,0-0.82,0.16-1.04,0.3l-0.18-0.45c0.27-0.18,0.8-0.35,1.36-0.35c1.02,0,1.49,0.54,1.49,1.1c0,0.47-0.32,0.88-0.96,1.08v0.01
			c0.64,0.11,1.16,0.54,1.16,1.18c0,0.74-0.65,1.38-1.9,1.38c-0.58,0-1.1-0.16-1.35-0.31L3.53,25.29z"/>
	</g>
	<g>
		<path style="fill:#696969;" d="M16.53,26.01v-1.25h-2.41v-0.41l2.32-2.94h0.76v2.86h0.73v0.49H17.2v1.25H16.53z M16.53,24.27
			v-1.54c0-0.24,0.01-0.48,0.02-0.72h-0.02c-0.16,0.27-0.29,0.47-0.43,0.68l-1.27,1.56v0.01H16.53z"/>
	</g>
	<g>
		<path style="fill:#696969;" d="M28.46,21.89h-1.98l-0.2,1.18c0.12-0.01,0.23-0.03,0.42-0.03c0.4,0,0.8,0.08,1.12,0.25
			c0.41,0.21,0.74,0.6,0.74,1.18c0,0.9-0.81,1.57-1.94,1.57c-0.57,0-1.05-0.14-1.29-0.28l0.18-0.47c0.22,0.11,0.64,0.25,1.11,0.25
			c0.66,0,1.23-0.38,1.23-1c-0.01-0.59-0.46-1.02-1.5-1.02c-0.3,0-0.53,0.03-0.72,0.05l0.34-2.21h2.49V21.89z"/>
	</g>
</g>
</svg>
