<?xml version="1.0" encoding="utf-8"?>
<!-- Generator: Adobe Illustrator 23.1.0, SVG Export Plug-In . SVG Version: 6.00 Build 0)  -->
<svg version="1.1" xmlns="http://www.w3.org/2000/svg" xmlns:xlink="http://www.w3.org/1999/xlink" x="0px" y="0px" width="32px"
	 height="32px" viewBox="0 0 32 32" style="enable-background:new 0 0 32 32;" xml:space="preserve">
<g id="Layer_1">
	<rect y="0" style="fill:#3F51B5;" width="32" height="32"/>
	<rect x="1" y="1" style="fill:#FFFFFF;" width="29.87" height="29.87"/>
	<polygon style="fill:#3F51B5;" points="31,15.5 16.5,15.5 16.5,1 15.5,1 15.5,15.5 1,15.5 1,16.5 15.5,16.5 15.5,31 16.5,31 
		16.5,16.5 31,16.5 	"/>
</g>
<g id="Layer_2">
	<g>
		<path style="fill:#696969;" d="M7.97,6.46H7.96l-0.9,0.43L6.92,6.42l1.14-0.54h0.6v4.6H7.97V6.46z"/>
	</g>
	<g>
		<path style="fill:#696969;" d="M21.69,10.52v-0.38l0.55-0.47c1.33-1.12,1.93-1.71,1.93-2.41c0-0.47-0.26-0.9-1.03-0.9
			c-0.47,0-0.86,0.21-1.1,0.39l-0.22-0.44c0.36-0.27,0.87-0.47,1.47-0.47c1.12,0,1.59,0.68,1.59,1.34c0,0.85-0.7,1.54-1.79,2.47
			l-0.42,0.34V10h2.33v0.52H21.69z"/>
	</g>
	<g>
		<path style="fill:#696969;" d="M6.35,25.29c0.2,0.11,0.66,0.29,1.15,0.29c0.9,0,1.18-0.51,1.18-0.89
			c-0.01-0.64-0.66-0.92-1.34-0.92H6.95V23.3h0.39c0.51,0,1.16-0.23,1.16-0.78c0-0.37-0.26-0.69-0.91-0.69
			c-0.42,0-0.82,0.16-1.04,0.3l-0.18-0.45c0.27-0.18,0.8-0.35,1.36-0.35c1.02,0,1.49,0.54,1.49,1.1c0,0.47-0.32,0.88-0.96,1.08v0.01
			c0.64,0.11,1.16,0.54,1.16,1.18c0,0.74-0.65,1.38-1.9,1.38c-0.58,0-1.1-0.16-1.35-0.31L6.35,25.29z"/>
	</g>
	<g>
		<path style="fill:#696969;" d="M23.86,26.01v-1.25h-2.41v-0.41l2.32-2.94h0.76v2.86h0.73v0.49h-0.73v1.25H23.86z M23.86,24.27
			v-1.54c0-0.24,0.01-0.48,0.02-0.72h-0.02c-0.16,0.27-0.29,0.47-0.43,0.68l-1.27,1.56v0.01H23.86z"/>
	</g>
</g>
</svg>
