<?xml version="1.0" encoding="utf-8"?>
<!-- Generator: Adobe Illustrator 23.1.0, SVG Export Plug-In . SVG Version: 6.00 Build 0)  -->
<svg version="1.1" xmlns="http://www.w3.org/2000/svg" xmlns:xlink="http://www.w3.org/1999/xlink" x="0px" y="0px" width="32px"
	 height="32px" viewBox="0 0 32 32" style="enable-background:new 0 0 32 32;" xml:space="preserve">
<g id="Layer_1">
	<rect style="fill:#3F51B5;" width="32" height="32"/>
	<rect x="1.07" y="1" style="fill:#FFFFFF;" width="29.87" height="29.87"/>
	<rect x="15.5" y="1" style="fill:#3F51B5;" width="1" height="30"/>
</g>
<g id="Layer_2">
	<g>
		<path style="fill:#696969;" d="M7.97,14.62H7.96l-0.9,0.43l-0.14-0.47l1.14-0.54h0.6v4.6H7.97V14.62z"/>
	</g>
	<g>
		<path style="fill:#696969;" d="M21.69,18.68V18.3l0.55-0.47c1.33-1.12,1.93-1.71,1.94-2.41c0-0.47-0.26-0.9-1.03-0.9
			c-0.47,0-0.86,0.21-1.1,0.39l-0.22-0.44C22.18,14.2,22.69,14,23.29,14c1.12,0,1.59,0.68,1.59,1.34c0,0.85-0.7,1.54-1.79,2.47
			l-0.42,0.34v0.01h2.33v0.52H21.69z"/>
	</g>
</g>
</svg>
