<svg id="Layer_1" data-name="Layer 1" xmlns="http://www.w3.org/2000/svg" width="32" height="32" viewBox="0 0 32 32"><defs><style>.cls-1{fill:#3f51b5;}.cls-2{fill:#fff;}.cls-3{fill:#696969;}</style></defs><title>PortConfig</title><rect class="cls-1" width="32" height="32"/><rect class="cls-2" x="1.07" y="1.07" width="29.87" height="29.87"/><polygon class="cls-1" points="16.5 31 16.5 1 15.5 1 15.5 15.5 1 15.5 1 16.5 15.5 16.5 15.5 31 16.5 31"/><path class="cls-3" d="M7.89,7h0L7,7.41l-.14-.47L8,6.4h.6V11H7.89Z"/><path class="cls-3" d="M6.36,26v-.38l.55-.48c1.33-1.12,1.93-1.71,1.94-2.4,0-.47-.26-.9-1-.9a1.87,1.87,0,0,0-1.1.39l-.22-.44A2.45,2.45,0,0,1,8,21.32c1.12,0,1.59.68,1.59,1.34,0,.85-.7,1.53-1.79,2.47l-.42.34H9.68V26Z"/><path class="cls-3" d="M22.53,17.29a2.61,2.61,0,0,0,1.15.29c.9,0,1.18-.51,1.17-.9,0-.64-.66-.92-1.34-.92h-.39v-.47h.39c.51,0,1.16-.23,1.16-.77,0-.37-.26-.7-.91-.7a2.07,2.07,0,0,0-1,.31l-.18-.46a2.78,2.78,0,0,1,1.36-.35c1,0,1.48.54,1.48,1.1s-.32.87-1,1.08h0a1.27,1.27,0,0,1,1.16,1.19c0,.73-.65,1.38-1.89,1.38a2.85,2.85,0,0,1-1.35-.31Z"/></svg>