<svg id="Layer_1" data-name="Layer 1" xmlns="http://www.w3.org/2000/svg" width="121.86" height="80.46" viewBox="0 0 121.86 80.46"><defs><style>.cls-1{fill:#74489d;stroke:#e6e6e6;stroke-miterlimit:10;stroke-width:0.5px;}</style></defs><title>quickbase</title><path class="cls-1" d="M104,81.09a2,2,0,0,1-1.57.88H83.08a.58.58,0,0,1-.64-.49.53.53,0,0,1,.1-.39L102.9,45a1.83,1.83,0,0,0,0-1.76L82.44,5.64a.54.54,0,0,1,.15-.78.5.5,0,0,1,.39-.1h19.48a2.23,2.23,0,0,1,1.57.88L124.5,43.25a2.24,2.24,0,0,1,0,1.76Z" transform="translate(-3.07 -1.77)"/><path class="cls-1" d="M70.88,70.71c7.2-7.64,12.29-16.84,12.29-28.79a39.93,39.93,0,0,0-79.85,0C3.32,63.27,20,81.63,41.26,82H77.1a.53.53,0,0,0,.54-.49.35.35,0,0,0-.1-.29C77.3,81,70.88,70.71,70.88,70.71ZM43.22,63a21,21,0,1,1,21-21,21,21,0,0,1-21,21Z" transform="translate(-3.07 -1.77)"/></svg>